<svg width="17" height="13" viewBox="0 0 17 13" fill="none" xmlns="http://www.w3.org/2000/svg">
<path d="M2.25049 12.8418C1.83799 12.8418 1.48487 12.695 1.19112 12.4012C0.89737 12.1075 0.750495 11.7543 0.750495 11.3418L0.75 2.4071L2.25031 0.907179L2.25049 11.3418H11.2505V8.34184H12.7505V11.3418C12.7505 11.7543 12.6036 12.1075 12.3099 12.4012C12.0161 12.695 11.663 12.8418 11.2505 12.8418H2.25049Z" fill="#8B8E8F"/>
<path d="M0.750315 11.4071C0.750315 11.8196 0.897189 12.1727 1.19094 12.4665C1.48469 12.7602 1.83781 12.9071 2.25031 12.9071L11.2505 12.8418L12.7505 11.3418L2.25031 11.4071V2.4071H5.25031V0.907104L2.25031 0.907179C1.83781 0.907179 1.48469 1.05398 1.19094 1.34773C0.897189 1.64148 0.75 1.9946 0.75 2.4071L0.750315 11.4071Z" fill="#8B8E8F"/>
<path d="M6.76237 8.25V5.89286C6.76237 5.40179 6.93251 4.98438 7.27279 4.64062C7.61306 4.29688 8.02626 4.125 8.51237 4.125H13.8645L11.7645 6.24643L12.5957 7.07143L16.0957 3.53571L12.5957 0L11.7645 0.825L13.8645 2.94643H8.51237C7.70543 2.94643 7.01758 3.23371 6.44883 3.80826C5.88008 4.38281 5.5957 5.07768 5.5957 5.89286V8.25H6.76237Z" fill="#8B8E8F"/>
</svg>
