<svg width="100" height="100" viewBox="0 0 100 100" fill="none" xmlns="http://www.w3.org/2000/svg">
  <g clip-path="url(#clip0_12326_6187)">
    <path d="M44.0578 42.2005C44.7753 42.2679 45.4977 42.2679 46.2153 42.2005C47.4819 42.3117 48.7558 42.3117 50.0224 42.2005C50.4921 42.2138 50.9634 42.2569 51.4314 42.2353C53.3765 42.1457 55.227 42.4212 56.8799 43.5415C58.1714 44.586 59.1253 45.9891 59.6216 47.5743C59.7129 48.5352 59.7876 49.4961 59.7876 50.4637C59.7876 53.7082 59.8091 56.9544 59.8224 60.199C59.7511 61.4803 59.7511 62.7646 59.8224 64.046C59.8108 64.3679 59.7859 64.6882 59.7859 65.0102C59.7859 71.0822 59.7859 77.1547 59.7859 83.2278C59.7859 84.8874 59.5336 86.4823 58.5196 87.8747C57.1687 89.7202 55.3946 90.8421 53.0695 90.8454C37.5797 90.862 22.09 90.862 6.60028 90.8454C3.15327 90.8371 0.117833 87.8017 0.0182557 84.3381C-0.00995768 83.3971 0.00331923 82.4544 0.00331923 81.5167C0.00110641 70.238 0 58.9593 0 47.6805C0 46.2682 0.713634 45.4417 1.9069 45.4583C3.04705 45.4732 3.76732 46.3196 3.76732 47.6805C3.76732 59.6032 3.76732 71.5253 3.76732 83.4469C3.76732 84.9588 4.28014 86.1537 5.73562 86.8042C6.26504 87.0194 6.83414 87.1195 7.40519 87.098C22.3771 87.098 37.3479 87.098 52.3176 87.098C54.6776 87.098 55.9505 85.8035 55.9505 83.4552C55.9505 76.986 55.9434 70.5174 55.929 64.0493V60.2056C55.929 56.5412 55.9671 52.8751 55.929 49.2107C55.9107 47.5511 54.7257 46.3263 53.0794 46.1305C52.0704 46.0093 51.053 46.0724 50.039 46.1022H40.2473C36.0584 46.0934 31.8696 46.084 27.6807 46.074C27.2608 46.074 26.8227 46.1271 26.431 45.9562C26.0696 45.8167 25.7583 45.5723 25.537 45.2543C25.3158 44.9363 25.1948 44.5594 25.1896 44.1721C25.1581 43.5083 25.1747 42.8345 25.168 42.1656C25.1581 41.223 24.9241 40.9774 23.9748 40.9757C20.9266 40.9691 17.8779 40.9691 14.8286 40.9757C13.6138 40.9757 12.399 40.9757 11.1775 40.9757C10.0008 40.9757 9.78508 41.1881 9.78508 42.3598C9.78508 52.9448 9.78508 63.5287 9.78508 74.1115C9.78508 75.9703 9.78508 77.8291 9.78508 79.6895C9.78508 81.062 9.02664 81.9316 7.85827 81.92C6.65007 81.9101 5.95635 81.1051 5.95635 79.6762C5.95635 68.2005 5.95635 56.7243 5.95635 45.2475C5.95635 44.2053 5.93976 43.1647 5.95635 42.1241C6.02274 39.0588 7.96282 37.1453 11.0281 37.132C15.3144 37.1188 19.6022 37.1188 23.8918 37.132C26.8111 37.132 28.6399 38.7485 28.9951 41.6362C29.0383 41.9831 29.0283 42.2536 29.5063 42.2503C33.0728 42.2254 36.6426 42.2171 40.2091 42.2038C41.4896 42.3158 42.7775 42.3147 44.0578 42.2005Z" fill="#D9D9D9"/>
    <path d="M50.02 42.2024C48.7534 42.3136 47.4795 42.3136 46.2129 42.2024C46.2129 33.2825 46.2129 24.3621 46.2129 15.4411C46.2129 12.9168 47.4327 11.1776 49.6334 10.4623C50.1213 10.3079 50.6192 10.3262 51.1004 10.3262C55.5864 10.3179 60.079 10.3776 64.5599 10.298C66.9365 10.2565 69.1985 12.3443 69.2201 14.6279C69.2201 15.2121 69.4309 15.4046 70.0499 15.4029C77.558 15.378 85.0661 15.4029 92.5742 15.3814C95.4586 15.3814 97.6924 16.5066 99.1662 19.0143C99.69 19.8569 99.9766 20.8253 99.996 21.8173C100.006 33.6371 100.006 45.4563 99.996 57.275C99.986 60.8498 97.0717 63.8072 93.5036 64.0213C93.1816 64.0396 92.8596 64.0462 92.5377 64.0462H59.8167C59.7454 62.7649 59.7454 61.4806 59.8167 60.1992H92.609C94.9408 60.1992 96.232 58.9246 96.2336 56.5663C96.2414 45.2876 96.2414 34.0094 96.2336 22.7318C96.2529 22.2116 96.1606 21.6932 95.9631 21.2116C95.2893 19.7179 94.0612 19.1918 92.4912 19.1935C84.8072 19.2068 77.1237 19.2068 69.4408 19.1935C68.777 19.1935 68.1015 19.2118 67.4327 19.1935C66.2046 19.1504 65.5109 18.4633 65.4561 17.2385C65.4295 16.6709 65.4478 16.1 65.4478 15.5291C65.4478 14.2744 65.2387 14.067 63.9724 14.067H51.7062C50.2126 14.067 50.0333 14.2512 50.0333 15.7266C50.0278 24.5535 50.0234 33.3788 50.02 42.2024Z" fill="#A8ADAF"/>
    <path d="M55.9281 60.2058V64.0478C53.0818 64.0478 50.2356 64.0661 47.3877 64.0478C43.944 64.0196 41.2206 61.8903 40.4173 58.6375C40.2962 58.1583 40.2333 57.6663 40.2298 57.1721C40.2182 53.4844 40.2298 49.7951 40.2298 46.1074H44.0469C44.0469 49.6479 44.0469 53.1857 44.0469 56.7207C44.0469 58.9014 45.3464 60.2058 47.5321 60.2058C50.3401 60.2108 53.1349 60.2058 55.9281 60.2058Z" fill="#A8ADAF"/>
    <path d="M44.0585 42.2008C42.7798 42.3137 41.4936 42.3137 40.2148 42.2008C40.2148 35.1674 40.2204 28.1334 40.2314 21.0988C40.2256 20.8273 40.2373 20.5557 40.2663 20.2856C40.3957 19.2517 41.1426 18.6044 42.1765 18.6094C42.6499 18.611 43.1051 18.7923 43.4499 19.1168C43.7947 19.4412 44.0033 19.8845 44.0336 20.357C44.0602 20.6275 44.0569 20.9013 44.0569 21.1735C44.0591 28.1826 44.0596 35.1917 44.0585 42.2008Z" fill="#A8ADAF"/>
    <path d="M16.6897 64.8626C16.6897 62.3124 16.6897 59.7615 16.6897 57.2102C16.6897 55.9738 17.4099 55.1522 18.5152 55.1141C19.6438 55.0759 20.4869 55.8908 20.4918 57.1405C20.5107 62.3162 20.5107 67.4926 20.4918 72.6695C20.4958 72.9175 20.4508 73.164 20.3594 73.3946C20.268 73.6253 20.132 73.8357 19.9592 74.0137C19.7864 74.1918 19.5802 74.334 19.3523 74.4322C19.1245 74.5305 18.8795 74.5828 18.6314 74.5863C17.5228 74.5863 16.6963 73.7565 16.693 72.5948C16.683 70.0141 16.6897 67.4384 16.6897 64.8626Z" fill="#D9D9D9"/>
    <path d="M56.877 43.5431C56.8919 42.2818 56.9168 41.0205 56.9201 39.7592C56.9201 36.7868 56.9201 33.8161 56.9201 30.8437C56.9164 30.4983 56.9403 30.1531 56.9915 29.8114C57.0692 29.3567 57.3094 28.9456 57.6675 28.6547C58.0256 28.3637 58.4771 28.2128 58.9382 28.2298C59.4121 28.2515 59.8603 28.4518 60.1925 28.7905C60.5248 29.1292 60.7164 29.5811 60.7289 30.0554C60.7571 31.1939 60.7289 32.334 60.7289 33.4725C60.7289 37.5087 60.719 41.5449 60.7372 45.5877C60.7372 46.4939 60.4269 47.166 59.607 47.5793C59.1143 45.9944 58.1646 44.5903 56.877 43.5431Z" fill="#A8ADAF"/>
    <path d="M50.0443 46.1025C50.0443 48.4559 50.0443 50.8092 50.0261 53.1609C50.0345 53.5708 49.9072 53.9719 49.6641 54.3021C49.421 54.6322 49.0757 54.8728 48.6818 54.9864C48.2627 55.1081 47.8149 55.0849 47.4107 54.9204C47.0065 54.756 46.6697 54.46 46.4546 54.0803C46.1857 53.6339 46.2223 53.1277 46.2173 52.6398C46.1957 50.4607 46.1891 48.2816 46.1758 46.1025H50.0443Z" fill="#A8ADAF"/>
  </g>
  <defs>
    <clipPath id="clip0_12326_6187">
      <rect width="100" height="100" fill="white"/>
    </clipPath>
  </defs>
</svg>
