<svg width="24" height="24" viewBox="0 0 24 24" fill="none" xmlns="http://www.w3.org/2000/svg">
  <mask id="mask0_12392_7304" style="mask-type:alpha" maskUnits="userSpaceOnUse" x="0" y="0" width="24" height="24">
    <rect width="24" height="24" fill="#D9D9D9"/>
  </mask>
  <g mask="url(#mask0_12392_7304)">
    <path d="M4.30775 19.5C3.81058 19.5 3.385 19.323 3.031 18.969C2.677 18.615 2.5 18.1894 2.5 17.6923V4.30775C2.5 3.81058 2.677 3.385 3.031 3.031C3.385 2.677 3.81058 2.5 4.30775 2.5H9.09625C9.59325 2.5 10.0188 2.677 10.3728 3.031C10.7268 3.385 10.9038 3.81058 10.9038 4.30775V8.923H9.404V6.9135H4V15.0865H10.9038V17.6923C10.9038 18.1894 10.7268 18.615 10.3728 18.969C10.0188 19.323 9.59325 19.5 9.09625 19.5H4.30775ZM14.8173 21.5C14.3439 21.5 13.9388 21.3315 13.6018 20.9945C13.2648 20.6573 13.0962 20.2521 13.0962 19.7788V15.0865H14.596V17.0865H20V8.923H13.0962V6.30775C13.0962 5.81058 13.2733 5.385 13.6273 5.031C13.9813 4.677 14.4068 4.5 14.9038 4.5H19.6923C20.1894 4.5 20.615 4.677 20.969 5.031C21.323 5.385 21.5 5.81058 21.5 6.30775V19.6923C21.5 20.1894 21.323 20.615 20.969 20.969C20.615 21.323 20.1894 21.5 19.6923 21.5H14.8173ZM4 16.5865V17.6923C4 17.7821 4.02883 17.8558 4.0865 17.9135C4.14417 17.9712 4.21792 18 4.30775 18H9.09625C9.18592 18 9.25958 17.9712 9.31725 17.9135C9.37508 17.8558 9.404 17.7821 9.404 17.6923V16.5865H4ZM14.596 18.5865V19.6923C14.596 19.7821 14.6249 19.8558 14.6827 19.9135C14.7404 19.9712 14.8141 20 14.9038 20H19.6923C19.7821 20 19.8558 19.9712 19.9135 19.9135C19.9712 19.8558 20 19.7821 20 19.6923V18.5865H14.596ZM4 5.4135H9.404V4.30775C9.404 4.21792 9.37508 4.14417 9.31725 4.0865C9.25958 4.02883 9.18592 4 9.09625 4H4.30775C4.21792 4 4.14417 4.02883 4.0865 4.0865C4.02883 4.14417 4 4.21792 4 4.30775V5.4135ZM14.596 7.423H20V6.30775C20 6.21792 19.9712 6.14417 19.9135 6.0865C19.8558 6.02883 19.7821 6 19.6923 6H14.9038C14.8141 6 14.7404 6.02883 14.6827 6.0865C14.6249 6.14417 14.596 6.21792 14.596 6.30775V7.423Z" fill="#8B8E8F"/>
  </g>
  <path d="M8 12.5L9 13.5L8 14L6 12L8 10L9 10.5L8 11.5H12V12.5H8Z" fill="#8B8E8F"/>
  <path d="M16 11.5L15 10.5L16 10L18 12L16 14L15 13.5L16 12.5H12V11.5H16Z" fill="#8B8E8F"/>
</svg>
